<svg width="48" height="48" viewBox="0 0 48 48" fill="none" xmlns="http://www.w3.org/2000/svg">
<g clip-path="url(#clip0_4_48)">
<rect width="48" height="48" fill="white"/>
<path d="M30.5 40.5C30.5 41.6457 29.4516 43.1445 26.6771 44.4451C24.0221 45.6896 20.2488 46.5 16 46.5C11.7512 46.5 7.97793 45.6896 5.32294 44.4451C2.54839 43.1445 1.5 41.6457 1.5 40.5C1.5 39.3543 2.54839 37.8555 5.32294 36.5549C7.97793 35.3104 11.7512 34.5 16 34.5C20.2488 34.5 24.0221 35.3104 26.6771 36.5549C29.4516 37.8555 30.5 39.3543 30.5 40.5Z" stroke="#152C5B" stroke-width="3"/>
<path d="M28.5 13.7143C28.5 17.2355 27.0035 23.9772 24.5176 29.8639C23.2802 32.7944 21.8399 35.409 20.2963 37.2642C18.7183 39.161 17.2593 40 16 40C14.7407 40 13.2817 39.161 11.7037 37.2642C10.1601 35.409 8.71981 32.7944 7.48235 29.8639C4.99652 23.9772 3.5 17.2355 3.5 13.7143C3.5 6.99753 9.06713 1.5 16 1.5C22.9329 1.5 28.5 6.99753 28.5 13.7143Z" fill="white" stroke="#152C5B" stroke-width="3"/>
<circle cx="16" cy="15" r="4.5" stroke="#FF498B" stroke-width="3"/>
</g>
<defs>
<clipPath id="clip0_4_48">
<rect width="48" height="48" fill="white"/>
</clipPath>
</defs>
</svg>
