<svg width="48" height="48" viewBox="0 0 48 48" fill="none" xmlns="http://www.w3.org/2000/svg">
<g clip-path="url(#clip0_4_71)">
<rect width="48" height="48" fill="white"/>
<mask id="path-1-inside-1_4_71" fill="white">
<path fill-rule="evenodd" clip-rule="evenodd" d="M29.25 11H17.75L15.1944 15H8C3.58172 15 0 18.5817 0 23V37C0 41.4183 3.58172 45 8 45H40C44.4183 45 48 41.4183 48 37V23C48 18.5817 44.4183 15 40 15H31.8056L29.25 11Z"/>
</mask>
<path d="M17.75 11V8H16.1067L15.2219 9.38483L17.75 11ZM29.25 11L31.7781 9.38483L30.8933 8H29.25V11ZM15.1944 15V18H16.8378L17.7225 16.6152L15.1944 15ZM31.8056 15L29.2775 16.6152L30.1622 18H31.8056V15ZM17.75 14H29.25V8H17.75V14ZM17.7225 16.6152L20.2781 12.6152L15.2219 9.38483L12.6664 13.3848L17.7225 16.6152ZM8 18H15.1944V12H8V18ZM3 23C3 20.2386 5.23858 18 8 18V12C1.92487 12 -3 16.9249 -3 23H3ZM3 37V23H-3V37H3ZM8 42C5.23858 42 3 39.7614 3 37H-3C-3 43.0751 1.92487 48 8 48V42ZM40 42H8V48H40V42ZM45 37C45 39.7614 42.7614 42 40 42V48C46.0751 48 51 43.0751 51 37H45ZM45 23V37H51V23H45ZM40 18C42.7614 18 45 20.2386 45 23H51C51 16.9249 46.0751 12 40 12V18ZM31.8056 18H40V12H31.8056V18ZM26.7219 12.6152L29.2775 16.6152L34.3336 13.3848L31.7781 9.38483L26.7219 12.6152Z" fill="#152C5B" mask="url(#path-1-inside-1_4_71)"/>
<circle cx="24" cy="30" r="6.5" stroke="#FF498B" stroke-width="3"/>
<path d="M32 21H38" stroke="#152C5B" stroke-width="3" stroke-linecap="round"/>
</g>
<defs>
<clipPath id="clip0_4_71">
<rect width="48" height="48" fill="white"/>
</clipPath>
</defs>
</svg>
